<svg width="2494" height="2767" viewBox="0 0 2494 2767" fill="none" xmlns="http://www.w3.org/2000/svg">
<path d="M1674.75 431.454C1674.75 669.74 1481.58 862.908 1243.29 862.908C1005.01 862.908 811.837 669.74 811.837 431.454C811.837 193.169 1005.01 0 1243.29 0C1481.58 0 1674.75 193.169 1674.75 431.454Z" fill="#FF5C8A"/>
<path d="M141.186 1884.28C-67.2991 1644.53 -41.9538 1281.17 197.797 1072.68L302.906 981.278C484.606 823.273 759.991 842.481 917.996 1024.18C1091.8 1224.04 1402.19 1224.04 1575.99 1024.18C1733.99 842.481 2009.38 823.272 2191.08 981.277L2296.19 1072.68C2535.94 1281.17 2561.28 1644.53 2352.8 1884.28L1807.12 2511.79C1511.22 2852.07 982.766 2852.07 686.866 2511.79L141.186 1884.28Z" fill="#FF5C8A"/>
<path d="M1246.47 1410.34C1303.41 1410.34 1349.56 1456.5 1349.56 1513.44V1771.18H1607.3C1664.24 1771.18 1710.4 1817.34 1710.4 1874.27C1710.4 1931.21 1664.24 1977.37 1607.3 1977.37H1349.56V2235.11C1349.56 2292.05 1303.41 2338.2 1246.47 2338.2C1189.53 2338.2 1143.37 2292.05 1143.37 2235.11V1977.37H885.635C828.697 1977.37 782.539 1931.21 782.539 1874.27C782.539 1817.34 828.697 1771.18 885.635 1771.18H1143.37V1513.44C1143.37 1456.5 1189.53 1410.34 1246.47 1410.34Z" fill="white"/>
</svg>